# xmcd
#
# Track frame offsets: 
#        150
#        16111
#        33185
#        51724
#        67318
#
# Disc length: 1090 seconds
#
# Revision: 0
# Processed by: cddbd v1.5.1PL0 Copyright (c) Steve Scherf et al.
# Submitted via: ExactAudioCopy v0.95a5
#
DISCID=42044005
DTITLE=Joanna Leigh - castaway
DYEAR=2002
DGENRE=
TTITLE0=only fools
TTITLE1=castaway
TTITLE2=wasted
TTITLE3=you don't
TTITLE4=time
EXTD=
EXTT0=
EXTT1=
EXTT2=
EXTT3=
EXTT4=
PLAYORDER=
